<svg xmlns="http://www.w3.org/2000/svg" width="134.146" height="131.38" viewBox="0 0 134.146 131.38">
  <g id="Group_249" data-name="Group 249" transform="translate(-98.016 -1249.944)">
    <ellipse id="Ellipse_34" data-name="Ellipse 34" cx="51.621" cy="5.593" rx="51.621" ry="5.593" transform="translate(117.934 1370.138)" fill="#fa0707"/>
    <path id="Path_791" data-name="Path 791" d="M487.566,27.838a15.676,15.676,0,0,1,29.123,1.87,8.517,8.517,0,0,1,8.1,8.62c0,.444-46.46.305-46.46,0-.026-7.143,2.426-10.556,8.076-10.556a10.176,10.176,0,0,1,1.161.066Z" transform="translate(-292.857 1231.13)" fill="#fa0707" fill-rule="evenodd"/>
    <path id="Path_792" data-name="Path 792" d="M94.455,35.5a22.645,22.645,0,0,0-42.067,2.7,12.3,12.3,0,0,0-11.7,12.451c0,.644,67.107.442,67.107,0,.048-10.317-3.5-15.246-11.653-15.246a14.934,14.934,0,0,0-1.677.093Z" transform="translate(64.772 1228.145)" fill="#fa0707" fill-rule="evenodd"/>
    <path id="Path_797" data-name="Path 797" d="M697.988,565.286l3.995,3.995a1.293,1.293,0,0,0,1.828-1.828l-3.995-3.995a1.293,1.293,0,0,0-1.828,1.828Z" transform="translate(-472.047 786.372)" fill="#fa0707" fill-rule="evenodd"/>
    <path id="Path_798" data-name="Path 798" d="M701.982,563.461l-3.995,3.991a1.293,1.293,0,0,0,1.828,1.828l3.995-3.995a1.293,1.293,0,1,0-1.828-1.828Z" transform="translate(-472.047 786.372)" fill="#fa0707" fill-rule="evenodd"/>
    <path id="Path_799" data-name="Path 799" d="M.359,271.272l4,4a1.293,1.293,0,1,0,1.828-1.828l-4-4a1.293,1.293,0,1,0-1.828,1.828Z" transform="translate(98.037 1026.629)" fill="#fa0707" fill-rule="evenodd"/>
    <path id="Path_800" data-name="Path 800" d="M4.364,269.431l-4,4A1.293,1.293,0,1,0,2.2,275.256l3.993-4a1.293,1.293,0,1,0-1.828-1.828Z" transform="translate(98.029 1026.645)" fill="#fa0707" fill-rule="evenodd"/>
    <path id="Path_801" data-name="Path 801" d="M609.308,185.452l3.995,3.995a1.293,1.293,0,0,0,1.828-1.828l-3.995-3.991a1.293,1.293,0,0,0-1.828,1.828Z" transform="translate(-399.58 1096.759)" fill="#fa0707" fill-rule="evenodd"/>
    <path id="Path_802" data-name="Path 802" d="M613.3,183.628l-3.995,3.995a1.293,1.293,0,0,0,1.828,1.828l3.995-3.995a1.293,1.293,0,0,0-1.828-1.828Z" transform="translate(-399.58 1096.759)" fill="#fa0707" fill-rule="evenodd"/>
    <path id="Path_815" data-name="Path 815" d="M58.54,277.979a65.079,65.079,0,0,1,114.732-14.314l-.027-.044a64.835,64.835,0,0,1,7.436,14.359,64.848,64.848,0,0,1-7.436,14.356l.027-.04A65.083,65.083,0,0,1,58.54,277.979Z" transform="translate(50.183 1054.142)" fill="#fff"/>
    <path id="Path_816" data-name="Path 816" d="M195.365,230.55a43.252,43.252,0,1,0,43.25,43.252A43.252,43.252,0,0,0,195.365,230.55Zm21.15,23.007v40.882H175.631V253.557Z" transform="translate(-26.28 1058.106)" fill="#fff1f1"/>
    <path id="Path_817" data-name="Path 817" d="M168.547,348.927A66.371,66.371,0,0,1,51.563,334.293a1.28,1.28,0,0,1,0-.89,66.447,66.447,0,0,1,21.391-29.329,1.291,1.291,0,1,1,1.591,2.031,63.873,63.873,0,0,0-20.393,27.744,63.791,63.791,0,0,0,112.291,13.584,1.291,1.291,0,0,1,2.134,1.452Z" transform="translate(55.95 998.272)" fill="#fa0707" fill-rule="evenodd"/>
    <path id="Path_818" data-name="Path 818" d="M364.808,258.662l-.027-.038a63.878,63.878,0,0,0-69-25.572,1.291,1.291,0,0,1-.662-2.494,66.461,66.461,0,0,1,71.732,26.5.62.62,0,0,1,.04.057,66.073,66.073,0,0,1,7.584,14.645,1.292,1.292,0,0,1-2.426.89,63.467,63.467,0,0,0-7.231-13.992Z" transform="translate(-142.388 1059.911)" fill="#fa0707" fill-rule="evenodd"/>
    <path id="Path_819" data-name="Path 819" d="M275.812,351.432v8.853a1.426,1.426,0,0,1-2.852,0V350.008a1.428,1.428,0,0,1,1.426-1.428h10.282a1.426,1.426,0,1,1,0,2.852Z" transform="translate(-125.035 961.655)" fill="#fa0707" fill-rule="evenodd"/>
    <path id="Path_820" data-name="Path 820" d="M450.671,351.432h-8.845a1.426,1.426,0,1,1,0-2.852H452.1a1.428,1.428,0,0,1,1.428,1.428v10.277a1.428,1.428,0,0,1-2.854,0Z" transform="translate(-261.863 961.655)" fill="#fa0707" fill-rule="evenodd"/>
    <path id="Path_821" data-name="Path 821" d="M275.845,526.307H284.7a1.426,1.426,0,1,1,0,2.852H274.419A1.428,1.428,0,0,1,273,527.726V517.456a1.426,1.426,0,1,1,2.852,0v8.851Z" transform="translate(-125.068 824.82)" fill="#fa0707" fill-rule="evenodd"/>
    <path id="Path_822" data-name="Path 822" d="M450.671,526.527v-8.851a1.428,1.428,0,0,1,2.854,0v10.269a1.428,1.428,0,0,1-1.428,1.426H441.826a1.426,1.426,0,0,1,0-2.852Z" transform="translate(-261.863 824.6)" fill="#fa0707" fill-rule="evenodd"/>
    <path id="Path_823" data-name="Path 823" d="M387.624,328.479V317.966a1.428,1.428,0,0,0-2.854,0v10.513a1.428,1.428,0,0,0,2.854,0Z" transform="translate(-216.403 987.796)" fill="#fa0707" fill-rule="evenodd"/>
    <path id="Path_824" data-name="Path 824" d="M387.624,559.169V548.656a1.428,1.428,0,0,0-2.854,0v10.513a1.428,1.428,0,0,0,2.854,0Z" transform="translate(-216.403 799.283)" fill="#fa0707" fill-rule="evenodd"/>
    <path id="Path_825" data-name="Path 825" d="M472.8,463.252h10.513a1.426,1.426,0,0,0,0-2.852H472.8a1.426,1.426,0,1,0,0,2.852Z" transform="translate(-287.17 870.279)" fill="#fa0707" fill-rule="evenodd"/>
    <path id="Path_826" data-name="Path 826" d="M242.122,463.252h10.516a1.426,1.426,0,1,0,0-2.852H242.126a1.426,1.426,0,0,0,0,2.852Z" transform="translate(-98.673 870.279)" fill="#fa0707" fill-rule="evenodd"/>
  </g>
</svg>
