<svg xmlns="http://www.w3.org/2000/svg" width="159.562" height="146.388" viewBox="0 0 159.562 146.388">
  <g id="Group_251" data-name="Group 251" transform="translate(-988.838 -1249.961)">
    <ellipse id="Ellipse_36" data-name="Ellipse 36" cx="59.291" cy="5.662" rx="59.291" ry="5.662" transform="translate(1008.612 1385.025)" fill="#fa0707"/>
    <path id="Path_795" data-name="Path 795" d="M2549.7,18.155a25.089,25.089,0,0,0-46.606,2.994,13.634,13.634,0,0,0-12.963,13.793c0,.711,74.346.488,74.346,0,.043-11.431-3.881-16.892-12.921-16.892a16.392,16.392,0,0,0-1.858.105Z" transform="translate(-1496.574 1246.98)" fill="#fa0707" fill-rule="evenodd"/>
    <path id="Path_796" data-name="Path 796" d="M2946.9,10a17.368,17.368,0,0,1,32.265,2.073,9.436,9.436,0,0,1,8.975,9.549c0,.492-51.471.339-51.471,0-.03-7.919,2.688-11.691,8.947-11.691A11.472,11.472,0,0,1,2946.9,10Z" transform="translate(-1854.471 1249.959)" fill="#fa0707" fill-rule="evenodd"/>
    <path id="Path_809" data-name="Path 809" d="M2466.794,340.313l4.338,4.338a1.4,1.4,0,0,0,1.985-1.985l-4.342-4.326a1.4,1.4,0,0,0-1.985,1.985Z" transform="translate(-1477.541 979.116)" fill="#fa0707" fill-rule="evenodd"/>
    <path id="Path_810" data-name="Path 810" d="M2471.147,338.34l-4.337,4.338a1.4,1.4,0,0,0,1.985,1.985l4.338-4.338a1.4,1.4,0,0,0-1.985-1.985Z" transform="translate(-1477.557 979.116)" fill="#fa0707" fill-rule="evenodd"/>
    <path id="Path_811" data-name="Path 811" d="M3234.57,523.575l4.338,4.338a1.4,1.4,0,0,0,1.985-1.985l-4.337-4.338a1.4,1.4,0,0,0-1.985,1.985Z" transform="translate(-2092.904 832.244)" fill="#fa0707" fill-rule="evenodd"/>
    <path id="Path_812" data-name="Path 812" d="M3238.907,521.61l-4.338,4.338a1.4,1.4,0,0,0,1.985,1.985l4.335-4.338a1.4,1.4,0,0,0-1.985-1.985Z" transform="translate(-2092.904 832.229)" fill="#fa0707" fill-rule="evenodd"/>
    <path id="Path_813" data-name="Path 813" d="M3201.34,185.4l4.338,4.338a1.4,1.4,0,1,0,1.985-1.985l-4.338-4.336a1.4,1.4,0,0,0-1.985,1.985Z" transform="translate(-2066.271 1103.282)" fill="#fa0707" fill-rule="evenodd"/>
    <path id="Path_814" data-name="Path 814" d="M3205.676,183.428l-4.336,4.34a1.4,1.4,0,0,0,1.985,1.985l4.338-4.338a1.4,1.4,0,0,0-1.985-1.985Z" transform="translate(-2066.271 1103.274)" fill="#fa0707" fill-rule="evenodd"/>
    <path id="Path_832" data-name="Path 832" d="M2767.617,542.92c-.131,6.591-.371,18.929-.371,18.929a7.631,7.631,0,0,0,7.454,7.754l19.766.4a7.627,7.627,0,0,0,7.754-7.456s.242-12.34.372-18.929a28.679,28.679,0,0,1-3.192,1.14,47.781,47.781,0,0,1-14.357,1.56C2781.92,546.243,2774.315,546.094,2767.617,542.92Z" transform="translate(-1718.68 814.819)" fill="#fa0707"/>
    <path id="Path_833" data-name="Path 833" d="M2812.839,677.48a8.953,8.953,0,0,0,16.58.326Z" transform="translate(-1755.223 706.972)" fill="#fff"/>
    <path id="Path_834" data-name="Path 834" d="M2824.741,616.156a10.355,10.355,0,0,1-18.754-1.245,1.4,1.4,0,0,1,2.616-.993,7.543,7.543,0,0,0,13.983.274,1.4,1.4,0,0,1,1.316-.848l1.588.032a6.221,6.221,0,0,0,6.325-6.083l.139-7.087a1.4,1.4,0,1,1,2.8.054c-.127,6.591-.139,7.089-.139,7.089a9.028,9.028,0,0,1-9.181,8.828l-.7-.012Z" transform="translate(-1749.68 770.042)" fill="#fa1212" fill-rule="evenodd"/>
    <path id="Path_835" data-name="Path 835" d="M2765.331,561.031a6.212,6.212,0,0,1-2.346-4.963s.242-12.338.373-18.928a1.4,1.4,0,1,0-2.8-.056c-.131,6.591-.373,18.93-.373,18.93h0a9,9,0,0,0,3.4,7.212,1.4,1.4,0,0,0,1.749-2.184Z" transform="translate(-1713.02 820.633)" fill="#fa1212" fill-rule="evenodd"/>
    <path id="Path_836" data-name="Path 836" d="M2676.967,145.762a36.285,36.285,0,0,0,.536,7.024h0q.425,2.031.955,4.113c4.423,17.055,14.359,35.963,16.8,38.824,6.7,3.176,14.3,3.323,17.426,3.387s10.71.2,17.523-2.694h.024c2.555-2.765,13.229-21.269,18.311-38.139.411-1.37.794-2.728,1.116-4.066h0a36.767,36.767,0,0,0-69.151-23.5h0A36.623,36.623,0,0,0,2676.967,145.762Z" transform="translate(-1646.318 1162.011)" fill="#fff1f1"/>
    <path id="Path_837" data-name="Path 837" d="M2690.569,125.1l-2.8-.1h0a1.411,1.411,0,0,1,.137-.554,38.17,38.17,0,0,1,71.785,24.4l-.341.611.328-.57c-.332,1.364-.715,2.744-1.134,4.139-5.161,17.12-16.03,35.88-18.623,38.685a1.4,1.4,0,0,1-2.059-1.9c2.515-2.723,12.991-20.973,18-37.591.4-1.348.774-2.68,1.1-3.994l.01-.038a35.366,35.366,0,0,0-66.531-22.54Z" transform="translate(-1654.982 1167.67)" fill="#fa0707" fill-rule="evenodd"/>
    <path id="Path_838" data-name="Path 838" d="M2670.447,292.778a37.766,37.766,0,0,1-.55-7.246,1.4,1.4,0,1,1,2.8.056,34.912,34.912,0,0,0,.514,6.75v.01q.417,1.985.929,4c4.367,16.8,14.1,35.447,16.51,38.266a1.4,1.4,0,1,1-2.134,1.818c-2.475-2.9-12.6-22.075-17.09-39.386q-.54-2.112-.969-4.169a.952.952,0,0,0-.016-.1Z" transform="translate(-1640.651 1022.213)" fill="#fa1212" fill-rule="evenodd"/>
    <path id="Path_839" data-name="Path 839" d="M2806.882,187.28a4.347,4.347,0,0,0,1.52-.273,4.3,4.3,0,0,0,2.519-5.532q-1.044-2.795-2.2-5.545c-.757-1.842-1.626-3.646-2.459-5.459-.4-.913-.891-1.795-1.335-2.7s-.907-1.788-1.416-2.666a59.807,59.807,0,0,0-3.174-5.216,1.455,1.455,0,0,0-2.649.913,59.206,59.206,0,0,0,.713,6.063c.142,1,.335,1.984.531,2.972s.357,1.979.6,2.944c.438,1.84.849,3.691,1.348,5.513-2.452-.051-4.907-.066-7.362-.013l-.484.008a4.007,4.007,0,0,0-3.661,5.37c.577,1.586,1.158,3.175,1.812,4.741s1.248,3.148,1.978,4.692c.678,1.557,1.4,3.1,2.187,4.632s1.584,3.048,2.5,4.534a1.447,1.447,0,0,0,2.683-.8c-.054-1.745-.2-3.46-.4-5.163s-.43-3.392-.717-5.067c-.2-1.424-.494-2.82-.772-4.221l8.234.27Z" transform="translate(-1730.238 1134.172)" fill="#fa0707"/>
  </g>
</svg>
