<svg xmlns="http://www.w3.org/2000/svg" width="174.406" height="144.631" viewBox="0 0 174.406 144.631">
  <g id="Group_250" data-name="Group 250" transform="translate(-523.895 -1249.944)">
    <g id="Group_247" data-name="Group 247" transform="translate(523.895 1249.944)">
      <ellipse id="Ellipse_35" data-name="Ellipse 35" cx="56.46" cy="6.117" rx="56.46" ry="6.117" transform="translate(31.496 132.397)" fill="#fa0707"/>
      <path id="Path_793" data-name="Path 793" d="M1302.47,24.19a17.5,17.5,0,0,0-32.5,2.086,9.507,9.507,0,0,0-9.04,9.62c0,.5,51.849.342,51.849,0,.028-7.971-2.708-11.78-9.012-11.78a11.5,11.5,0,0,0-1.294.074Z" transform="translate(-1244.017 -14.122)" fill="#fa0707" fill-rule="evenodd"/>
      <path id="Path_794" data-name="Path 794" d="M1607.123,32.38a25.271,25.271,0,0,1,46.946,3.015,13.731,13.731,0,0,1,13.06,13.893c0,.718-74.89.494-74.89,0-.048-11.514,3.909-17.021,13.016-17.021A16.5,16.5,0,0,1,1607.123,32.38Z" transform="translate(-1509.077 -17.095)" fill="#fa0707" fill-rule="evenodd"/>
      <path id="Path_803" data-name="Path 803" d="M1244.225,146.133l4.369,4.369a1.414,1.414,0,1,0,2-2l-4.371-4.369a1.414,1.414,0,0,0-2,2Z" transform="translate(-1230.321 -117.804)" fill="#fa0707" fill-rule="evenodd"/>
      <path id="Path_804" data-name="Path 804" d="M1248.6,144.153l-4.369,4.369a1.414,1.414,0,1,0,2,2l4.369-4.369a1.414,1.414,0,0,0-2-2Z" transform="translate(-1230.329 -117.82)" fill="#fa0707" fill-rule="evenodd"/>
      <path id="Path_805" data-name="Path 805" d="M2012.971,353.251l4.371,4.371a1.414,1.414,0,0,0,2-2l-4.369-4.369a1.414,1.414,0,0,0-2,2Z" transform="translate(-1845.349 -283.508)" fill="#fff1f1" fill-rule="evenodd"/>
      <path id="Path_806" data-name="Path 806" d="M2017.334,351.255l-4.371,4.369a1.414,1.414,0,0,0,2,2l4.369-4.371a1.414,1.414,0,1,0-2-2Z" transform="translate(-1845.341 -283.508)" fill="#fff1f1" fill-rule="evenodd"/>
      <path id="Path_807" data-name="Path 807" d="M1176.775,563.351l2.554,2.555,1.815,1.816a1.414,1.414,0,1,0,2-2l-4.371-4.369a1.414,1.414,0,0,0-2,2Z" transform="translate(-1176.359 -451.596)" fill="#fa0707" fill-rule="evenodd"/>
      <path id="Path_808" data-name="Path 808" d="M1181.152,561.355l-4.369,4.369a1.414,1.414,0,0,0,2,2l4.367-4.381a1.414,1.414,0,0,0-2-2Z" transform="translate(-1176.367 -451.587)" fill="#fa0707" fill-rule="evenodd"/>
      <ellipse id="Ellipse_37" data-name="Ellipse 37" cx="51.983" cy="51.983" rx="51.983" ry="51.983" transform="translate(34.344 31.3)" fill="#fff1f1"/>
      <path id="Path_827" data-name="Path 827" d="M1440.635,357.561a50.577,50.577,0,1,1-92.019-42,1.412,1.412,0,1,0-2.556-1.2,53.4,53.4,0,1,0,97.148,44.348,1.412,1.412,0,1,0-2.578-1.152Z" transform="translate(-1308.117 -253.674)" fill="#fa0707" fill-rule="evenodd"/>
      <path id="Path_828" data-name="Path 828" d="M1459.89,174.8a50.567,50.567,0,0,1,78.426,42.2,1.412,1.412,0,0,0,2.823,0,53.39,53.39,0,0,0-82.8-44.558,1.412,1.412,0,1,0,1.558,2.354Z" transform="translate(-1401.418 -133.718)" fill="#fa0707" fill-rule="evenodd"/>
      <ellipse id="Ellipse_38" data-name="Ellipse 38" cx="42.49" cy="42.49" rx="42.49" ry="42.49" transform="translate(43.836 40.792)" fill="#fff"/>
      <circle id="Ellipse_39" data-name="Ellipse 39" cx="32.996" cy="32.996" r="32.996" transform="translate(39.663 83.282) rotate(-45)" fill="#fa0707"/>
      <circle id="Ellipse_40" data-name="Ellipse 40" cx="23.504" cy="23.504" r="23.504" transform="translate(53.087 83.282) rotate(-45)" fill="#fff1f1"/>
      <path id="Path_829" data-name="Path 829" d="M1538,374.559a14.009,14.009,0,1,0,14.009-14.009A14.009,14.009,0,0,0,1538,374.559Z" transform="translate(-1465.685 -291.277)" fill="#fa0707"/>
      <ellipse id="Ellipse_41" data-name="Ellipse 41" cx="4.517" cy="4.517" rx="4.517" ry="4.517" transform="translate(80.418 80.824) rotate(-22.6)" fill="#fff"/>
      <rect id="Rectangle_195" data-name="Rectangle 195" width="68.26" height="2.987" transform="translate(86.326 81.913)" fill="#fa0707"/>
      <path id="Path_830" data-name="Path 830" d="M1867.184,382.35l6.251-8.35c.82-1.1.372-2-1-2h-15.569a5.609,5.609,0,0,0-3.985,2l-6.251,8.342Z" transform="translate(-1712.6 -300.438)" fill="#fa0707"/>
      <path id="Path_831" data-name="Path 831" d="M1867.184,438.71l6.251,8.344c.82,1.1.372,2-1,2h-15.569a5.609,5.609,0,0,1-3.985-2l-6.251-8.344Z" transform="translate(-1712.6 -353.808)" fill="#fa0707"/>
    </g>
  </g>
</svg>
